<svg xmlns="http://www.w3.org/2000/svg" xmlns:xlink="http://www.w3.org/1999/xlink" x="0" y="0" width="550" height="161" style="
        width:550px;
        height:161px;
        background: transparent;
        fill: none;
">
        
        
        <svg xmlns="http://www.w3.org/2000/svg" class="role-diagram-draw-area"><g class="shapes-region" style="stroke: black; fill: none;"><g class="composite-shape"><path class="real" d=" M85.13,55.75 L104.75,75.38 L85.13,95 L65.5,75.38 Z" style="stroke-width: 1; stroke: rgb(189, 16, 224); stroke-opacity: 1; fill: rgb(189, 16, 224); fill-opacity: 0.35;"/></g><g class="composite-shape"><path class="real" d=" M294.77,55.75 L314.39,75.38 L294.77,95 L275.14,75.38 Z" style="stroke-width: 1; stroke: rgb(189, 16, 224); stroke-opacity: 1; fill: rgb(189, 16, 224); fill-opacity: 0.35;"/></g><g class="arrow-line"><path class="connection real" stroke-dasharray="" d="  M259.14,75.38 L272.14,75.38" style="stroke: rgb(0, 0, 0); stroke-width: 1; fill: none; fill-opacity: 1;"/><g stroke="none" fill="#000" transform="matrix(-1,1.2246467991473532e-16,-1.2246467991473532e-16,-1,275.1428571428571,75.375)" style="stroke: none; fill: rgb(0, 0, 0); stroke-width: 1;"><path d=" M6.25,-3 L0,0 L6.25,3 Z"/></g></g><g class="composite-shape"><path class="real" d=" M517.27,55.75 L536.89,75.38 L517.27,95 L497.64,75.38 Z" style="stroke-width: 1; stroke: rgb(189, 16, 224); stroke-opacity: 1; fill: rgb(189, 16, 224); fill-opacity: 0.35;"/></g><g class="arrow-line"><path class="connection real" stroke-dasharray="" d="  M482.86,75.38 L494.64,75.38" style="stroke: rgb(0, 0, 0); stroke-width: 1; fill: none; fill-opacity: 1;"/><g stroke="none" fill="#000" transform="matrix(-1,1.2246467991473532e-16,-1.2246467991473532e-16,-1,497.6428571428571,75.375)" style="stroke: none; fill: rgb(0, 0, 0); stroke-width: 1;"><path d=" M6.25,-3 L0,0 L6.25,3 Z"/></g></g><g/></g><g><g class="connection-group"><g class="arrow-line"><path class="connection real" stroke-dasharray="" d="  M136.43,35.05 L153.45,55.09" style="stroke: rgb(126, 211, 33); stroke-opacity: 1; stroke-width: 1; fill: none; fill-opacity: 1;"/><g stroke="none" fill="rgb(126,211,33)" fill-opacity="1" transform="matrix(-0.647455086819402,-0.7621036088037378,0.7621036088037378,-0.647455086819402,155.39553279005384,57.375)" style="stroke: none; fill: rgb(126, 211, 33); stroke-width: 1;"><path d=" M8.04,-3.86 L0,0 L8.04,3.86 Z"/></g></g></g><g class="connection-group"><g class="arrow-line"><path class="connection real" stroke-dasharray="" d="  M141.19,134.75 L157.87,134.75" style="stroke: rgb(0, 0, 0); stroke-width: 1; fill: none; fill-opacity: 1;"/><g stroke="none" fill="#000" transform="matrix(-1,1.2246467991473532e-16,-1.2246467991473532e-16,-1,160.87033852082413,134.75000000000003)" style="stroke: none; fill: rgb(0, 0, 0); stroke-width: 1;"><path d=" M6.25,-3 L0,0 L6.25,3 Z"/></g></g></g><g class="connection-group"><g class="arrow-line"><path class="connection real" stroke-dasharray="" d="  M182.5,134.75 L197.19,134.75" style="stroke: rgb(0, 0, 0); stroke-width: 1; fill: none; fill-opacity: 1;"/><g stroke="none" fill="#000" transform="matrix(-1,1.2246467991473532e-16,-1.2246467991473532e-16,-1,200.18699234721603,134.75000000000003)" style="stroke: none; fill: rgb(0, 0, 0); stroke-width: 1;"><path d=" M6.25,-3 L0,0 L6.25,3 Z"/></g></g></g><g class="connection-group"><g class="arrow-line"><path class="connection real" stroke-dasharray="" d="  M357.57,20.05 L372.75,20.05" style="stroke: rgb(0, 0, 0); stroke-width: 1; fill: none; fill-opacity: 1;"/><g stroke="none" fill="#000" transform="matrix(-1,3.6739403974420594e-16,-3.6739403974420594e-16,-1,375.7500128402747,20.049999999999986)" style="stroke: none; fill: rgb(0, 0, 0); stroke-width: 1;"><path d=" M6.25,-3 L0,0 L6.25,3 Z"/></g></g></g><g class="connection-group"><g class="arrow-line"><path class="connection real" stroke-dasharray="" d="  M397.38,20.05 L412.57,20.05" style="stroke: rgb(0, 0, 0); stroke-width: 1; fill: none; fill-opacity: 1;"/><g stroke="none" fill="#000" transform="matrix(-1,1.2246467991473532e-16,-1.2246467991473532e-16,-1,415.56666666666666,20.049999999999994)" style="stroke: none; fill: rgb(0, 0, 0); stroke-width: 1;"><path d=" M6.25,-3 L0,0 L6.25,3 Z"/></g></g></g><g class="connection-group"><g class="arrow-line"><path class="connection real" stroke-dasharray="" d="  M170.99,93.38 L171.45,120.94" style="stroke: rgb(126, 211, 33); stroke-opacity: 1; stroke-width: 1; fill: none; fill-opacity: 1;"/><g stroke="none" fill="rgb(126,211,33)" fill-opacity="1" transform="matrix(-0.01675437686898139,-0.9998596355767804,0.9998596355767804,-0.01675437686898139,171.5048424341398,123.93484891109512)" style="stroke: none; fill: rgb(126, 211, 33); stroke-width: 1;"><path d=" M8.04,-3.86 L0,0 L8.04,3.86 Z"/></g></g></g><g class="connection-group"><g class="arrow-line"><path class="connection real" stroke-dasharray="" d="  M225.15,120.25 L241.92,87.66" style="stroke: rgb(0, 0, 0); stroke-width: 1; fill: none; fill-opacity: 1;"/><g stroke="none" fill="#000" transform="matrix(-0.45756356170347257,0.8891769154680257,-0.8891769154680257,-0.45756356170347257,243.28813441308677,84.99511757046389)" style="stroke: none; fill: rgb(0, 0, 0); stroke-width: 1;"><path d=" M6.25,-3 L0,0 L6.25,3 Z"/></g></g></g><g class="connection-group"><g class="arrow-line"><path class="connection real" stroke-dasharray="" d="  M225.69,34.55 L241.56,63.28" style="stroke: rgb(0, 0, 0); stroke-width: 1; fill: none; fill-opacity: 1;"/><g stroke="none" fill="#000" transform="matrix(-0.48343517327822055,-0.8753801649783121,0.8753801649783121,-0.48343517327822055,243.00833681346364,65.90439059378218)" style="stroke: none; fill: rgb(0, 0, 0); stroke-width: 1;"><path d=" M6.25,-3 L0,0 L6.25,3 Z"/></g></g></g><g class="connection-group"><g class="arrow-line"><path class="connection real" stroke-dasharray="" d="  M443.24,34.55 L463.95,64.06" style="stroke: rgb(0, 0, 0); stroke-width: 1; fill: none; fill-opacity: 1;"/><g stroke="none" fill="#000" transform="matrix(-0.5742910628709759,-0.8186511925762552,0.8186511925762552,-0.5742910628709759,465.6681873339708,66.51943527017238)" style="stroke: none; fill: rgb(0, 0, 0); stroke-width: 1;"><path d=" M6.25,-3 L0,0 L6.25,3 Z"/></g></g></g><g class="connection-group"><g class="arrow-line"><path class="connection real" stroke-dasharray="" d="  M442.86,120.25 L464.38,86.98" style="stroke: rgb(0, 0, 0); stroke-width: 1; fill: none; fill-opacity: 1;"/><g stroke="none" fill="#000" transform="matrix(-0.5430279003673822,0.8397146535714334,-0.8397146535714334,-0.5430279003673822,466.00682632710993,84.4591708526562)" style="stroke: none; fill: rgb(0, 0, 0); stroke-width: 1;"><path d=" M6.25,-3 L0,0 L6.25,3 Z"/></g></g></g><g class="connection-group"><g class="arrow-line"><path class="connection real" stroke-dasharray="" d="  M351.42,120.25 L370.62,95.74" style="stroke: rgb(126, 211, 33); stroke-opacity: 1; stroke-width: 1; fill: none; fill-opacity: 1;"/><g stroke="none" fill="rgb(126,211,33)" fill-opacity="1" transform="matrix(-0.6166237523636591,0.7872579933039492,-0.7872579933039492,-0.6166237523636591,372.4698245614036,93.375)" style="stroke: none; fill: rgb(126, 211, 33); stroke-width: 1;"><path d=" M8.04,-3.86 L0,0 L8.04,3.86 Z"/></g></g></g><g class="connection-group"><g class="arrow-line"><path class="connection real" stroke-dasharray="" d="  M386.57,57.38 L386.57,33.87" style="stroke: rgb(126, 211, 33); stroke-opacity: 1; stroke-width: 1; fill: none; fill-opacity: 1;"/><g stroke="none" fill="rgb(126,211,33)" fill-opacity="1" transform="matrix(3.061616997868383e-16,1,-1,3.061616997868383e-16,386.56666666666683,30.86665382639194)" style="stroke: none; fill: rgb(126, 211, 33); stroke-width: 1;"><path d=" M8.04,-3.86 L0,0 L8.04,3.86 Z"/></g></g></g><g class="connection-group"><g class="arrow-line"><path class="connection real" stroke-dasharray="" d="  M94.19,88.81 L112.43,117.23" style="stroke: rgb(0, 0, 0); stroke-width: 1; fill: none; fill-opacity: 1;"/><g stroke="none" fill="#000" transform="matrix(-0.5402403204776551,-0.841510781945306,0.841510781945306,-0.5402403204776551,114.05581446779246,119.75)" style="stroke: none; fill: rgb(0, 0, 0); stroke-width: 1;"><path d=" M6.25,-3 L0,0 L6.25,3 Z"/></g></g></g><g class="connection-group"><g class="arrow-line"><path class="connection real" stroke-dasharray="" d="  M94.85,61.81 L111.62,37.52" style="stroke: rgb(0, 0, 0); stroke-width: 1; fill: none; fill-opacity: 1;"/><g stroke="none" fill="#000" transform="matrix(-0.5682746603893317,0.8228389334246342,-0.8228389334246342,-0.5682746603893317,113.32819324822053,35.05)" style="stroke: none; fill: rgb(0, 0, 0); stroke-width: 1;"><path d=" M6.25,-3 L0,0 L6.25,3 Z"/></g></g></g><g class="connection-group"><g class="arrow-line"><path class="connection real" stroke-dasharray="" d="  M307.14,62.38 L326.94,36.92" style="stroke: rgb(0, 0, 0); stroke-width: 1; fill: none; fill-opacity: 1;"/><g stroke="none" fill="#000" transform="matrix(-0.6140097203730333,0.7892984627423454,-0.7892984627423454,-0.6140097203730333,328.78557056785667,34.54999999999998)" style="stroke: none; fill: rgb(0, 0, 0); stroke-width: 1;"><path d=" M6.25,-3 L0,0 L6.25,3 Z"/></g></g></g><g class="connection-group"><g class="arrow-line"><path class="connection real" stroke-dasharray="" d="  M306.45,88.38 L327.79,117.82" style="stroke: rgb(0, 0, 0); stroke-width: 1; fill: none; fill-opacity: 1;"/><g stroke="none" fill="#000" transform="matrix(-0.5869377295426316,-0.8096320779461129,0.8096320779461129,-0.5869377295426316,329.55506007017544,120.25)" style="stroke: none; fill: rgb(0, 0, 0); stroke-width: 1;"><path d=" M6.25,-3 L0,0 L6.25,3 Z"/></g></g></g><g class="connection-group"><g class="arrow-line"><path class="connection real" stroke-dasharray="" d="  M183.99,20.05 L197.19,20.05" style="stroke: rgb(0, 0, 0); stroke-width: 1; fill: none; fill-opacity: 1;"/><g stroke="none" fill="#000" transform="matrix(-1,3.6739403974420594e-16,-3.6739403974420594e-16,-1,200.18699234721606,20.04999999999999)" style="stroke: none; fill: rgb(0, 0, 0); stroke-width: 1;"><path d=" M6.25,-3 L0,0 L6.25,3 Z"/></g></g></g><g class="connection-group"><g class="arrow-line"><path class="connection real" stroke-dasharray="" d="  M141.19,20.05 L156.39,20.05" style="stroke: rgb(0, 0, 0); stroke-width: 1; fill: none; fill-opacity: 1;"/><g stroke="none" fill="#000" transform="matrix(-1,3.6739403974420594e-16,-3.6739403974420594e-16,-1,159.38861847096723,20.04999999999999)" style="stroke: none; fill: rgb(0, 0, 0); stroke-width: 1;"><path d=" M6.25,-3 L0,0 L6.25,3 Z"/></g></g></g><g class="connection-group"><g class="arrow-line"><path class="connection real" stroke-dasharray="" d="  M357.57,134.5 L373.06,134.27" style="stroke: rgb(0, 0, 0); stroke-width: 1; fill: none; fill-opacity: 1;"/><g stroke="none" fill="#000" transform="matrix(-0.999895076364634,0.014485726138605043,-0.014485726138605043,-0.999895076364634,376.05655083913706,134.22826696805677)" style="stroke: none; fill: rgb(0, 0, 0); stroke-width: 1;"><path d=" M6.25,-3 L0,0 L6.25,3 Z"/></g></g></g><g class="connection-group"><g class="arrow-line"><path class="connection real" stroke-dasharray="" d="  M400.65,134.24 L412.99,134.43" style="stroke: rgb(0, 0, 0); stroke-width: 1; fill: none; fill-opacity: 1;"/><g stroke="none" fill="#000" transform="matrix(-0.9998793586966922,-0.015532805679964757,0.015532805679964757,-0.9998793586966922,415.9869666666666,134.4785818248855)" style="stroke: none; fill: rgb(0, 0, 0); stroke-width: 1;"><path d=" M6.25,-3 L0,0 L6.25,3 Z"/></g></g></g></g><g><g><rect rx="5" ry="5" x="106.18699234721605" y="5.049999999999994" width="35.000000000000014" height="30.000000000000004" style="stroke: rgb(250, 84, 119); stroke-opacity: 1; stroke-width: 1; fill: rgb(250, 84, 119); fill-opacity: 0.35;"/></g><g><rect rx="5" ry="5" x="106.18699234721608" y="119.75" width="34.999999999999986" height="30" style="stroke: rgb(68, 138, 255); stroke-opacity: 1; stroke-width: 1; fill: rgb(68, 138, 255); fill-opacity: 0.35;"/></g><g><rect rx="5" ry="5" x="123.68699234721606" y="57.375" width="94" height="36" style="stroke: rgb(126, 211, 33); stroke-opacity: 1; stroke-width: 1; fill: rgb(184, 233, 134); fill-opacity: 0.34;"/></g><g><circle cx="171.68699234721606" cy="134.75" r="10.816653826391969" style="stroke: rgb(0, 0, 0); stroke-width: 1; fill: none; fill-opacity: 1;"/></g><g><rect rx="5" ry="5" x="200.18699234721606" y="5.549999999999994" width="35" height="29.000000000000004" style="stroke: rgb(250, 84, 119); stroke-opacity: 1; stroke-width: 1; fill: rgb(250, 84, 119); fill-opacity: 0.35;"/></g><g><rect rx="5" ry="5" x="200.18699234721606" y="120.25" width="35" height="29" style="stroke: rgb(68, 138, 255); stroke-opacity: 1; stroke-width: 1; fill: rgb(68, 138, 255); fill-opacity: 0.35;"/></g><g><rect rx="5" ry="5" x="322.56666666666666" y="5.549999999999994" width="35" height="29.000000000000004" style="stroke: rgb(250, 84, 119); stroke-opacity: 1; stroke-width: 1; fill: rgb(250, 84, 119); fill-opacity: 0.35;"/></g><g><rect rx="5" ry="5" x="322.56666666666666" y="120.25" width="35" height="29" style="stroke: rgb(68, 138, 255); stroke-opacity: 1; stroke-width: 1; fill: rgb(68, 138, 255); fill-opacity: 0.35;"/></g><g><rect rx="5" ry="5" x="415.56666666666666" y="5.549999999999994" width="35" height="29.000000000000004" style="stroke: rgb(250, 84, 119); stroke-opacity: 1; stroke-width: 1; fill: rgb(250, 84, 119); fill-opacity: 0.35;"/></g><g><rect rx="5" ry="5" x="415.9869666666666" y="120.25" width="35" height="29" style="stroke: rgb(68, 138, 255); stroke-opacity: 1; stroke-width: 1; fill: rgb(68, 138, 255); fill-opacity: 0.35;"/></g><g><circle cx="386.56666666666666" cy="20.049999999999994" r="10.816653826391969" style="stroke: rgb(0, 0, 0); stroke-width: 1; fill: none; fill-opacity: 1;"/></g><g><circle cx="248.23812091864465" cy="75.375" r="10.816653826391969" style="stroke: rgb(0, 0, 0); stroke-width: 1; fill: none; fill-opacity: 1;"/></g><g><circle cx="471.8809780615017" cy="75.375" r="10.816653826391969" style="stroke: rgb(0, 0, 0); stroke-width: 1; fill: none; fill-opacity: 1;"/></g><g><rect rx="5" ry="5" x="340.06666666666666" y="57.375" width="93" height="36" style="stroke: rgb(126, 211, 33); stroke-opacity: 1; stroke-width: 1; fill: rgb(184, 233, 134); fill-opacity: 0.34;"/></g><g><circle cx="171.68699234721606" cy="20.049999999999994" r="12.298373876248844" style="stroke: rgb(0, 0, 0); stroke-width: 1; fill: none; fill-opacity: 1;"/></g><g><circle cx="388.35365901388275" cy="134.05" r="12.298373876248844" style="stroke: rgb(0, 0, 0); stroke-width: 1; fill: none; fill-opacity: 1;"/></g></g><g/></svg>
        <svg xmlns="http://www.w3.org/2000/svg" xmlns:xlink="http://www.w3.org/1999/xlink" width="548" height="159" style="width:548px;height:159px;font-family:ThickerLm-Math, ThickerLm, Asana-Math, Asana;background:transparent;"><g><g><g><g transform="matrix(1,0,0,1,74.1015625,80.796875)"><path transform="matrix(0.017,0,0,-0.017,0,0)" d="M864 376C864 432 800 446 766 446C712 446 678 403 662 376C635 435 582 446 553 446C445 446 388 315 388 288C388 273 404 274 404 274C414 274 419 278 421 288C455 392 519 416 551 416C568 416 600 408 600 353C600 323 584 256 547 116C531 55 497 16 456 16C451 16 436 15 418 23C440 32 458 51 458 78C458 108 432 118 416 118C383 118 356 89 356 55C356 5 411 -16 455 -16C512 -16 547 33 559 54C574 19 610 -16 668 -16C775 -16 832 116 832 143C832 157 818 158 816 158C805 158 801 150 799 143C767 38 700 16 670 16C634 16 620 44 620 77C620 98 625 120 636 164L670 301C676 328 699 416 765 416C769 416 785 415 803 408C779 399 762 376 762 353C762 335 775 314 805 314C829 314 864 333 864 376Z" stroke="rgb(0,0,0)" stroke-opacity="1" stroke-width="8" fill="rgb(0,0,0)" fill-opacity="1"></path></g></g><g><g><g></g></g><g><g></g></g></g></g></g><g><g><g><g transform="matrix(1,0,0,1,110.2734375,26.03125)"><path transform="matrix(0.017,0,0,-0.017,0,0)" d="M864 376C864 432 800 446 766 446C712 446 678 403 662 376C635 435 582 446 553 446C445 446 388 315 388 288C388 273 404 274 404 274C414 274 419 278 421 288C455 392 519 416 551 416C568 416 600 408 600 353C600 323 584 256 547 116C531 55 497 16 456 16C451 16 436 15 418 23C440 32 458 51 458 78C458 108 432 118 416 118C383 118 356 89 356 55C356 5 411 -16 455 -16C512 -16 547 33 559 54C574 19 610 -16 668 -16C775 -16 832 116 832 143C832 157 818 158 816 158C805 158 801 150 799 143C767 38 700 16 670 16C634 16 620 44 620 77C620 98 625 120 636 164L670 301C676 328 699 416 765 416C769 416 785 415 803 408C779 399 762 376 762 353C762 335 775 314 805 314C829 314 864 333 864 376Z" stroke="rgb(0,0,0)" stroke-opacity="1" stroke-width="8" fill="rgb(0,0,0)" fill-opacity="1"></path></g></g><g><g><g></g></g><g><g><g><g transform="matrix(1,0,0,1,126.1484375,30.696875)"><path transform="matrix(0.0119,0,0,-0.0119,0,0)" d="M419 -4C421 -4 424 -3 424 0L424 31C424 33 422 36 419 36L387 36C297 36 298 45 298 79L298 640C298 665 296 670 271 670C270 670 269 670 268 669C208 607 121 606 89 606C87 606 84 605 84 602L84 571C84 569 86 566 89 566C109 566 163 566 216 590L216 79C216 46 217 36 127 36L95 36C93 36 90 34 90 31L90 0C90 -2 92 -4 95 -4C130 -1 217 -2 257 -2C297 -2 384 -1 419 -4Z" stroke="rgb(0,0,0)" stroke-opacity="1" stroke-width="8" fill="rgb(0,0,0)" fill-opacity="1"></path></g></g></g></g></g></g></g><g><g><g><g transform="matrix(1,0,0,1,110.2734375,140.734375)"><path transform="matrix(0.017,0,0,-0.017,0,0)" d="M864 376C864 432 800 446 766 446C712 446 678 403 662 376C635 435 582 446 553 446C445 446 388 315 388 288C388 273 404 274 404 274C414 274 419 278 421 288C455 392 519 416 551 416C568 416 600 408 600 353C600 323 584 256 547 116C531 55 497 16 456 16C451 16 436 15 418 23C440 32 458 51 458 78C458 108 432 118 416 118C383 118 356 89 356 55C356 5 411 -16 455 -16C512 -16 547 33 559 54C574 19 610 -16 668 -16C775 -16 832 116 832 143C832 157 818 158 816 158C805 158 801 150 799 143C767 38 700 16 670 16C634 16 620 44 620 77C620 98 625 120 636 164L670 301C676 328 699 416 765 416C769 416 785 415 803 408C779 399 762 376 762 353C762 335 775 314 805 314C829 314 864 333 864 376Z" stroke="rgb(0,0,0)" stroke-opacity="1" stroke-width="8" fill="rgb(0,0,0)" fill-opacity="1"></path></g></g><g><g><g></g></g><g><g><g><g transform="matrix(1,0,0,1,126.1484375,145.4)"><path transform="matrix(0.0119,0,0,-0.0119,0,0)" d="M453 173C453 175 452 178 449 178L424 178C422 178 420 177 420 175C415 145 408 102 399 88C391 83 329 82 307 82L138 81L236 177C392 315 454 370 454 472C454 589 361 670 237 670C121 670 46 576 46 485C46 425 100 424 103 424C121 424 160 438 160 482C160 510 140 538 102 538L96 538C120 597 170 630 224 630C312 630 354 553 354 472C354 394 305 316 250 254L58 40C46 28 46 24 46 0C46 -2 47 -4 50 -4L421 -4C423 -4 425 -3 425 -1Z" stroke="rgb(0,0,0)" stroke-opacity="1" stroke-width="8" fill="rgb(0,0,0)" fill-opacity="1"></path></g></g></g></g></g></g></g><g><g><g><g transform="matrix(1,0,0,1,127.59375,78.875)"><path transform="matrix(0.017,0,0,-0.017,0,0)" d="M525 720C508 720 502 712 494 699L160 116C136 75 114 40 55 35C44 34 30 32 30 12C30 1 39 -4 47 -4C72 -4 99 -2 125 -2C158 -2 192 -4 224 -4C229 -4 246 -3 246 20C246 34 231 35 228 35C207 36 182 43 182 67C182 79 186 85 196 102L460 564L496 79C498 60 500 41 445 36L426 36C414 36 398 35 398 12C398 -4 415 -4 418 -4C458 -4 500 -2 541 -2C565 -2 623 -4 647 -4C653 -4 670 -4 670 19C670 36 656 36 641 36C593 36 595 39 593 68L548 690L548 699C548 718 535 720 525 720Z" stroke="rgb(0,0,0)" stroke-opacity="1" stroke-width="8" fill="rgb(0,0,0)" fill-opacity="1"></path></g></g><g><g><g><g><g transform="matrix(1,0,0,1,140.375,72.30625)"><path transform="matrix(0.0119,0,0,-0.0119,0,0)" d="M726 -64C726 -51 715 -40 702 -40L414 -40L414 226L702 226C715 226 726 237 726 250C726 263 715 274 702 274L414 274L414 563C414 576 402 588 389 588C376 588 364 576 364 563L364 274L76 274C63 274 52 263 52 250C52 237 63 226 76 226L364 226L364 -40L76 -40C63 -40 52 -51 52 -64C52 -77 63 -88 76 -88L702 -88C715 -88 726 -77 726 -64Z" stroke="rgb(0,0,0)" stroke-opacity="1" stroke-width="8" fill="rgb(0,0,0)" fill-opacity="1"></path></g></g></g></g><g><g><g><g transform="matrix(1,0,0,1,139.90625,83.540625)"><path transform="matrix(0.0119,0,0,-0.0119,0,0)" d="M278 88C278 27 320 -16 375 -16C407 -16 435 2 458 40C484 86 494 142 494 143C494 157 480 158 478 158C465 158 463 149 460 136C440 62 417 16 377 16C361 16 350 23 350 58C350 84 362 121 362 145C362 211 301 241 222 253C249 271 277 300 298 321C346 374 392 416 438 416C448 416 457 413 461 410C419 401 410 366 410 353C410 335 423 314 453 314C481 314 512 338 512 379C512 411 488 446 440 446C411 446 364 438 291 357C260 322 224 286 190 269L291 682C291 683 292 698 274 698C250 698 178 690 152 688C144 687 128 685 128 664C128 647 143 648 157 648C205 648 202 635 202 635L200 616L55 40C51 26 50 23 50 17C50 -10 74 -16 84 -16C99 -16 115 -6 122 8C128 19 168 186 177 224C213 220 286 203 286 144C286 128 278 105 278 88Z" stroke="rgb(0,0,0)" stroke-opacity="1" stroke-width="8" fill="rgb(0,0,0)" fill-opacity="1"></path></g></g></g></g></g><g><svg x="151.84375" overflow="visible" y="60.875" height="29" width="8.5"><path d=" M 7.13 1.91 c 0.00 -0.12 -0.13 -0.21 -0.27 -0.21 c -0.06 0.00 -0.11 0.02 -0.15 0.04 c -3.42 2.05 -5.39 7.66 -5.39 12.66 v 0.10 h 1.45 v -0.10 c 0.00 -4.78 1.15 -10.35 4.40 -12.32 c 0.08 -0.03 0.11 -0.09 0.11 -0.16 z   M 1.28 14.50 v 0.00 h 1.45 v 0.00 z" style="fill:rgb(0,0,0);fill-opacity:1;stroke-width:1px;stroke:none;stroke-opacity:1;"></path><path d=" M 7.13 27.09 c 0.00 0.12 -0.13 0.21 -0.27 0.21 c -0.06 0.00 -0.11 -0.02 -0.15 -0.04 c -3.42 -2.05 -5.39 -7.66 -5.39 -12.66 v -0.10 h 1.45 v 0.10 c 0.00 4.78 1.15 10.35 4.40 12.32 c 0.08 0.03 0.11 0.09 0.11 0.16 z" style="fill:rgb(0,0,0);fill-opacity:1;stroke-width:1px;stroke:none;stroke-opacity:1;"></path></svg></g><g><g transform="matrix(1,0,0,1,158.65625,78.875)"><path transform="matrix(0.017,0,0,-0.017,0,0)" d="M532 376C532 432 468 446 434 446C380 446 346 403 330 376C303 435 250 446 221 446C113 446 56 315 56 288C56 273 72 274 72 274C82 274 87 278 89 288C123 392 187 416 219 416C236 416 268 408 268 353C268 323 252 256 215 116C199 55 165 16 124 16C119 16 104 15 86 23C108 32 126 51 126 78C126 108 100 118 84 118C51 118 24 89 24 55C24 5 79 -16 123 -16C180 -16 215 33 227 54C242 19 278 -16 336 -16C443 -16 500 116 500 143C500 157 486 158 484 158C473 158 469 150 467 143C435 38 368 16 338 16C302 16 288 44 288 77C288 98 293 120 304 164L338 301C344 328 367 416 433 416C437 416 453 415 471 408C447 399 430 376 430 353C430 335 443 314 473 314C497 314 532 333 532 376Z" stroke="rgb(0,0,0)" stroke-opacity="1" stroke-width="8" fill="rgb(0,0,0)" fill-opacity="1"></path></g></g><g><g><g></g></g><g><g><g><g transform="matrix(1,0,0,1,168.890625,83.540625)"><path transform="matrix(0.0119,0,0,-0.0119,0,0)" d="M419 -4C421 -4 424 -3 424 0L424 31C424 33 422 36 419 36L387 36C297 36 298 45 298 79L298 640C298 665 296 670 271 670C270 670 269 670 268 669C208 607 121 606 89 606C87 606 84 605 84 602L84 571C84 569 86 566 89 566C109 566 163 566 216 590L216 79C216 46 217 36 127 36L95 36C93 36 90 34 90 31L90 0C90 -2 92 -4 95 -4C130 -1 217 -2 257 -2C297 -2 384 -1 419 -4Z" stroke="rgb(0,0,0)" stroke-opacity="1" stroke-width="8" fill="rgb(0,0,0)" fill-opacity="1"></path></g></g></g></g></g><g><g transform="matrix(1,0,0,1,176.3125,78.875)"><path transform="matrix(0.017,0,0,-0.017,0,0)" d="M168 3C168 -29 164 -99 106 -166C99 -174 98 -178 98 -182C98 -191 105 -198 112 -198C129 -198 200 -113 200 3C200 30 198 110 139 110C101 110 82 81 82 53C82 25 100 -4 139 -4C151 -4 155 -3 168 3ZM196 378C196 410 171 436 139 436C107 436 82 410 82 378C82 346 107 320 139 320C171 320 196 346 196 378Z" stroke="rgb(0,0,0)" stroke-opacity="1" stroke-width="8" fill="rgb(0,0,0)" fill-opacity="1"></path></g></g><g><g transform="matrix(1,0,0,1,184.4375,78.875)"><path transform="matrix(0.017,0,0,-0.017,0,0)" d="M431 591C424 590 409 588 386 588C372 588 365 587 359 589C370 592 383 592 393 592C414 592 422 593 431 591ZM332 684C332 694 326 702 316 702C291 702 294 648 294 648C294 632 296 616 303 600C198 544 42 361 42 167C42 23 136 -8 208 -32C238 -43 240 -43 269 -53C290 -60 328 -73 328 -117C328 -143 309 -178 276 -178C251 -178 225 -167 205 -150C198 -144 196 -142 190 -142C183 -142 176 -148 176 -157C176 -172 222 -210 276 -210C341 -210 390 -143 390 -84C390 -44 369 -22 361 -14C343 6 323 12 264 32C184 59 169 64 146 84C106 120 106 176 106 195C106 346 224 518 323 573C341 557 366 556 385 556C407 556 478 555 478 592C478 623 432 624 394 624C383 624 360 624 333 615C330 623 328 629 328 647C328 661 332 683 332 684Z" stroke="rgb(0,0,0)" stroke-opacity="1" stroke-width="8" fill="rgb(0,0,0)" fill-opacity="1"></path></g></g><g><g><g><g><g transform="matrix(1,0,0,1,192.390625,83.49375)"><path transform="matrix(0.0119,0,0,-0.0119,0,0)" d="M532 376C532 432 468 446 434 446C380 446 346 403 330 376C303 435 250 446 221 446C113 446 56 315 56 288C56 273 72 274 72 274C82 274 87 278 89 288C123 392 187 416 219 416C236 416 268 408 268 353C268 323 252 256 215 116C199 55 165 16 124 16C119 16 104 15 86 23C108 32 126 51 126 78C126 108 100 118 84 118C51 118 24 89 24 55C24 5 79 -16 123 -16C180 -16 215 33 227 54C242 19 278 -16 336 -16C443 -16 500 116 500 143C500 157 486 158 484 158C473 158 469 150 467 143C435 38 368 16 338 16C302 16 288 44 288 77C288 98 293 120 304 164L338 301C344 328 367 416 433 416C437 416 453 415 471 408C447 399 430 376 430 353C430 335 443 314 473 314C497 314 532 333 532 376Z" stroke="rgb(0,0,0)" stroke-opacity="1" stroke-width="8" fill="rgb(0,0,0)" fill-opacity="1"></path></g></g><g><g><g></g></g><g><g><g><g transform="matrix(1,0,0,1,199.546875,86.751875)"><path transform="matrix(0.00833,0,0,-0.00833,0,0)" d="M419 -4C421 -4 424 -3 424 0L424 31C424 33 422 36 419 36L387 36C297 36 298 45 298 79L298 640C298 665 296 670 271 670C270 670 269 670 268 669C208 607 121 606 89 606C87 606 84 605 84 602L84 571C84 569 86 566 89 566C109 566 163 566 216 590L216 79C216 46 217 36 127 36L95 36C93 36 90 34 90 31L90 0C90 -2 92 -4 95 -4C130 -1 217 -2 257 -2C297 -2 384 -1 419 -4Z" stroke="rgb(0,0,0)" stroke-opacity="1" stroke-width="8" fill="rgb(0,0,0)" fill-opacity="1"></path></g></g></g></g></g></g></g></g><g><svg x="204.0625" overflow="visible" y="60.875" height="29" width="8.5"><path d=" M 1.32 1.91 c 0.00 -0.12 0.13 -0.21 0.27 -0.21 c 0.06 0.00 0.11 0.02 0.15 0.04 c 3.42 2.05 5.39 7.66 5.39 12.66 v 0.10 h -1.45 v -0.10 c 0.00 -4.78 -1.15 -10.35 -4.40 -12.32 c -0.08 -0.03 -0.11 -0.09 -0.11 -0.16 z  M 7.17 14.50 v 0.00 h -1.45 v 0.00 z" style="fill:rgb(0,0,0);fill-opacity:1;stroke-width:1px;stroke:none;stroke-opacity:1;"></path><path d=" M 1.32 27.09 c 0.00 0.12 0.13 0.21 0.27 0.21 c 0.06 0.00 0.11 -0.02 0.15 -0.04 c 3.42 -2.05 5.39 -7.66 5.39 -12.66 v -0.10 h -1.45 v 0.10 c 0.00 4.78 -1.15 10.35 -4.40 12.32 c -0.08 0.03 -0.11 0.09 -0.11 0.16 z" style="fill:rgb(0,0,0);fill-opacity:1;stroke-width:1px;stroke:none;stroke-opacity:1;"></path></svg></g></g></g><g><g><g><g transform="matrix(1,0,0,1,165.53125,137.25)"><path transform="matrix(0.0085,0,0,-0.0085,0,0)" d="" stroke="rgb(0,0,0)" stroke-opacity="1" stroke-width="24" fill="rgb(0,0,0)" fill-opacity="1"></path></g></g><g><g transform="matrix(1,0,0,1,168.359375,137.25)"><path transform="matrix(0.0085,0,0,-0.0085,0,0)" d="M726 250C726 263 715 274 702 274L414 274L414 563C414 576 402 588 389 588C376 588 364 576 364 563L364 274L76 274C63 274 52 263 52 250C52 237 63 226 76 226L364 226L364 -63C364 -76 376 -88 389 -88C402 -88 414 -76 414 -63L414 226L702 226C715 226 726 237 726 250Z" stroke="rgb(0,0,0)" stroke-opacity="1" stroke-width="24" fill="rgb(0,0,0)" fill-opacity="1"></path></g></g><g><g transform="matrix(1,0,0,1,174.984375,137.25)"><path transform="matrix(0.0085,0,0,-0.0085,0,0)" d="" stroke="rgb(0,0,0)" stroke-opacity="1" stroke-width="24" fill="rgb(0,0,0)" fill-opacity="1"></path></g></g></g></g><g><g><g><g transform="matrix(1,0,0,1,204.2734375,25.7109375)"><path transform="matrix(0.017,0,0,-0.017,0,0)" d="M864 376C864 432 800 446 766 446C712 446 678 403 662 376C635 435 582 446 553 446C445 446 388 315 388 288C388 273 404 274 404 274C414 274 419 278 421 288C455 392 519 416 551 416C568 416 600 408 600 353C600 323 584 256 547 116C531 55 497 16 456 16C451 16 436 15 418 23C440 32 458 51 458 78C458 108 432 118 416 118C383 118 356 89 356 55C356 5 411 -16 455 -16C512 -16 547 33 559 54C574 19 610 -16 668 -16C775 -16 832 116 832 143C832 157 818 158 816 158C805 158 801 150 799 143C767 38 700 16 670 16C634 16 620 44 620 77C620 98 625 120 636 164L670 301C676 328 699 416 765 416C769 416 785 415 803 408C779 399 762 376 762 353C762 335 775 314 805 314C829 314 864 333 864 376Z" stroke="rgb(0,0,0)" stroke-opacity="1" stroke-width="8" fill="rgb(0,0,0)" fill-opacity="1"></path></g></g><g><g><g><g><g transform="matrix(1,0,0,1,219.3046875,24.6171875)"><path transform="matrix(0.017,0,0,-0.017,0,0)" d="M256 710C256 733 236 752 213 752C196 752 181 742 176 729L56 432C55 429 57 426 60 426L87 426C89 426 90 427 91 428L249 688C253 694 256 702 256 710Z" stroke="rgb(0,0,0)" stroke-opacity="1" stroke-width="8" fill="rgb(0,0,0)" fill-opacity="1"></path></g></g></g></g><g><g><g><g transform="matrix(1,0,0,1,220.1484375,30.3765625)"><path transform="matrix(0.0119,0,0,-0.0119,0,0)" d="M419 -4C421 -4 424 -3 424 0L424 31C424 33 422 36 419 36L387 36C297 36 298 45 298 79L298 640C298 665 296 670 271 670C270 670 269 670 268 669C208 607 121 606 89 606C87 606 84 605 84 602L84 571C84 569 86 566 89 566C109 566 163 566 216 590L216 79C216 46 217 36 127 36L95 36C93 36 90 34 90 31L90 0C90 -2 92 -4 95 -4C130 -1 217 -2 257 -2C297 -2 384 -1 419 -4Z" stroke="rgb(0,0,0)" stroke-opacity="1" stroke-width="8" fill="rgb(0,0,0)" fill-opacity="1"></path></g></g></g></g></g></g></g><g><g><g><g transform="matrix(1,0,0,1,204.2734375,140.4140625)"><path transform="matrix(0.017,0,0,-0.017,0,0)" d="M864 376C864 432 800 446 766 446C712 446 678 403 662 376C635 435 582 446 553 446C445 446 388 315 388 288C388 273 404 274 404 274C414 274 419 278 421 288C455 392 519 416 551 416C568 416 600 408 600 353C600 323 584 256 547 116C531 55 497 16 456 16C451 16 436 15 418 23C440 32 458 51 458 78C458 108 432 118 416 118C383 118 356 89 356 55C356 5 411 -16 455 -16C512 -16 547 33 559 54C574 19 610 -16 668 -16C775 -16 832 116 832 143C832 157 818 158 816 158C805 158 801 150 799 143C767 38 700 16 670 16C634 16 620 44 620 77C620 98 625 120 636 164L670 301C676 328 699 416 765 416C769 416 785 415 803 408C779 399 762 376 762 353C762 335 775 314 805 314C829 314 864 333 864 376Z" stroke="rgb(0,0,0)" stroke-opacity="1" stroke-width="8" fill="rgb(0,0,0)" fill-opacity="1"></path></g></g><g><g><g><g><g transform="matrix(1,0,0,1,219.3046875,139.3203125)"><path transform="matrix(0.017,0,0,-0.017,0,0)" d="M256 710C256 733 236 752 213 752C196 752 181 742 176 729L56 432C55 429 57 426 60 426L87 426C89 426 90 427 91 428L249 688C253 694 256 702 256 710Z" stroke="rgb(0,0,0)" stroke-opacity="1" stroke-width="8" fill="rgb(0,0,0)" fill-opacity="1"></path></g></g></g></g><g><g><g><g transform="matrix(1,0,0,1,220.1484375,145.0796875)"><path transform="matrix(0.0119,0,0,-0.0119,0,0)" d="M453 173C453 175 452 178 449 178L424 178C422 178 420 177 420 175C415 145 408 102 399 88C391 83 329 82 307 82L138 81L236 177C392 315 454 370 454 472C454 589 361 670 237 670C121 670 46 576 46 485C46 425 100 424 103 424C121 424 160 438 160 482C160 510 140 538 102 538L96 538C120 597 170 630 224 630C312 630 354 553 354 472C354 394 305 316 250 254L58 40C46 28 46 24 46 0C46 -2 47 -4 50 -4L421 -4C423 -4 425 -3 425 -1Z" stroke="rgb(0,0,0)" stroke-opacity="1" stroke-width="8" fill="rgb(0,0,0)" fill-opacity="1"></path></g></g></g></g></g></g></g><g><g><g><g transform="matrix(1,0,0,1,86.875,112.5)"><path transform="matrix(0.017,0,0,-0.017,0,0)" d="M852 143C852 157 838 158 836 158C823 158 822 150 817 136C799 83 772 16 719 16C705 16 700 22 700 44C700 68 708 91 717 113C736 165 778 276 778 335C778 402 736 446 659 446C587 446 536 407 499 357C497 373 490 399 467 419C441 441 408 446 382 446C300 446 251 394 229 366C219 418 178 446 134 446C85 446 65 405 56 387C37 351 24 293 24 288C24 273 41 274 41 274C53 274 56 278 62 300C79 372 100 416 131 416C144 416 158 410 158 374C158 354 155 343 142 291L84 60C80 45 74 22 74 16C74 -5 91 -16 108 -16C124 -16 139 -5 149 15C151 18 162 65 168 90L190 180C196 202 202 224 207 247L220 296C235 326 287 416 379 416C420 416 428 383 428 350C428 326 422 298 414 268L386 152C376 115 375 109 366 76C361 57 352 22 352 16C352 -5 369 -16 386 -16C421 -16 427 14 435 45L495 286C498 298 551 416 656 416C695 416 706 386 706 350C706 295 664 181 644 128C635 104 630 92 630 71C630 22 668 -16 717 -16C816 -16 852 134 852 143Z" stroke="rgb(74,144,226)" stroke-opacity="1" stroke-width="8" fill="rgb(74,144,226)" fill-opacity="1"></path></g></g></g></g><g><g><g><g transform="matrix(1,0,0,1,17,46.75)"><path transform="matrix(0.017,0,0,-0.017,0,0)" d="M419 -4C421 -4 424 -3 424 0L424 31C424 33 422 36 419 36L387 36C297 36 298 45 298 79L298 640C298 665 296 670 271 670C270 670 269 670 268 669C208 607 121 606 89 606C87 606 84 605 84 602L84 571C84 569 86 566 89 566C109 566 163 566 216 590L216 79C216 46 217 36 127 36L95 36C93 36 90 34 90 31L90 0C90 -2 92 -4 95 -4C130 -1 217 -2 257 -2C297 -2 384 -1 419 -4Z" stroke="rgb(250,84,119)" stroke-opacity="1" stroke-width="8" fill="rgb(250,84,119)" fill-opacity="1"></path></g></g><g><g transform="matrix(1,0,0,1,28.890625,46.75)"><path transform="matrix(0.017,0,0,-0.017,0,0)" d="M726 250C726 263 715 274 702 274L76 274C63 274 52 263 52 250C52 237 63 226 76 226L702 226C715 226 726 237 726 250Z" stroke="rgb(250,84,119)" stroke-opacity="1" stroke-width="8" fill="rgb(250,84,119)" fill-opacity="1"></path></g></g><g><g transform="matrix(1,0,0,1,45.515625,46.75)"><path transform="matrix(0.017,0,0,-0.017,0,0)" d="M852 143C852 157 838 158 836 158C823 158 822 150 817 136C799 83 772 16 719 16C705 16 700 22 700 44C700 68 708 91 717 113C736 165 778 276 778 335C778 402 736 446 659 446C587 446 536 407 499 357C497 373 490 399 467 419C441 441 408 446 382 446C300 446 251 394 229 366C219 418 178 446 134 446C85 446 65 405 56 387C37 351 24 293 24 288C24 273 41 274 41 274C53 274 56 278 62 300C79 372 100 416 131 416C144 416 158 410 158 374C158 354 155 343 142 291L84 60C80 45 74 22 74 16C74 -5 91 -16 108 -16C124 -16 139 -5 149 15C151 18 162 65 168 90L190 180C196 202 202 224 207 247L220 296C235 326 287 416 379 416C420 416 428 383 428 350C428 326 422 298 414 268L386 152C376 115 375 109 366 76C361 57 352 22 352 16C352 -5 369 -16 386 -16C421 -16 427 14 435 45L495 286C498 298 551 416 656 416C695 416 706 386 706 350C706 295 664 181 644 128C635 104 630 92 630 71C630 22 668 -16 717 -16C816 -16 852 134 852 143Z" stroke="rgb(250,84,119)" stroke-opacity="1" stroke-width="8" fill="rgb(250,84,119)" fill-opacity="1"></path></g></g><g><g transform="matrix(1,0,0,1,65.546875,46.75)"><path transform="matrix(0.017,0,0,-0.017,0,0)" d="M726 153C726 166 715 178 702 178L76 178C63 178 52 166 52 153C52 140 63 128 76 128L702 128C715 128 726 140 726 153ZM726 347C726 360 715 372 702 372L76 372C63 372 52 360 52 347C52 334 63 322 76 322L702 322C715 322 726 334 726 347Z" stroke="rgb(250,84,119)" stroke-opacity="1" stroke-width="8" fill="rgb(250,84,119)" fill-opacity="1"></path></g></g><g><g><g><g><g transform="matrix(1,0,0,1,84.71875,46.75)"><path transform="matrix(0.017,0,0,-0.017,0,0)" d="M852 143C852 157 838 158 836 158C823 158 822 150 817 136C799 83 772 16 719 16C705 16 700 22 700 44C700 68 708 91 717 113C736 165 778 276 778 335C778 402 736 446 659 446C587 446 536 407 499 357C497 373 490 399 467 419C441 441 408 446 382 446C300 446 251 394 229 366C219 418 178 446 134 446C85 446 65 405 56 387C37 351 24 293 24 288C24 273 41 274 41 274C53 274 56 278 62 300C79 372 100 416 131 416C144 416 158 410 158 374C158 354 155 343 142 291L84 60C80 45 74 22 74 16C74 -5 91 -16 108 -16C124 -16 139 -5 149 15C151 18 162 65 168 90L190 180C196 202 202 224 207 247L220 296C235 326 287 416 379 416C420 416 428 383 428 350C428 326 422 298 414 268L386 152C376 115 375 109 366 76C361 57 352 22 352 16C352 -5 369 -16 386 -16C421 -16 427 14 435 45L495 286C498 298 551 416 656 416C695 416 706 386 706 350C706 295 664 181 644 128C635 104 630 92 630 71C630 22 668 -16 717 -16C816 -16 852 134 852 143Z" stroke="rgb(250,84,119)" stroke-opacity="1" stroke-width="8" fill="rgb(250,84,119)" fill-opacity="1"></path></g></g></g></g><svg xmlns="http://www.w3.org/2000/svg" x="84.71875" y="31.75" height="6" width="14.9375"><defs><clipPath id="ccp0.053241868981974916"><rect x="-0.5" y="-0.5" width="15.4375" height="6.5"></rect></clipPath></defs><g clip-path="url(#ccp0.053241868981974916)"><svg xmlns="http://www.w3.org/2000/svg" x="0" y="0" height="20" width="17"><defs><clipPath id="ccp0.2722594052349694"><rect x="-0.5" y="-0.5" width="17.5" height="20.5"></rect></clipPath></defs><g clip-path="url(#ccp0.2722594052349694)"><g><g transform="matrix(1,0,0,1,0,17)"><path transform="matrix(0.017,0,0,-0.017,0,0)" d="M-882 790C-882 788 -880 786 -877 786L1877 786C1879 786 1882 787 1882 790L1882 850C1882 852 1880 854 1877 854L-877 854C-879 854 -882 853 -882 850Z" stroke="rgb(250,84,119)" stroke-opacity="1" stroke-width="8" fill="rgb(250,84,119)" fill-opacity="1"></path></g></g></g></svg></g></svg></g></g></g><g><g><g><g transform="matrix(1,0,0,1,299.9375,112.5)"><path transform="matrix(0.017,0,0,-0.017,0,0)" d="M852 143C852 157 838 158 836 158C823 158 822 150 817 136C799 83 772 16 719 16C705 16 700 22 700 44C700 68 708 91 717 113C736 165 778 276 778 335C778 402 736 446 659 446C587 446 536 407 499 357C497 373 490 399 467 419C441 441 408 446 382 446C300 446 251 394 229 366C219 418 178 446 134 446C85 446 65 405 56 387C37 351 24 293 24 288C24 273 41 274 41 274C53 274 56 278 62 300C79 372 100 416 131 416C144 416 158 410 158 374C158 354 155 343 142 291L84 60C80 45 74 22 74 16C74 -5 91 -16 108 -16C124 -16 139 -5 149 15C151 18 162 65 168 90L190 180C196 202 202 224 207 247L220 296C235 326 287 416 379 416C420 416 428 383 428 350C428 326 422 298 414 268L386 152C376 115 375 109 366 76C361 57 352 22 352 16C352 -5 369 -16 386 -16C421 -16 427 14 435 45L495 286C498 298 551 416 656 416C695 416 706 386 706 350C706 295 664 181 644 128C635 104 630 92 630 71C630 22 668 -16 717 -16C816 -16 852 134 852 143Z" stroke="rgb(68,138,255)" stroke-opacity="1" stroke-width="8" fill="rgb(68,138,255)" fill-opacity="1"></path></g></g></g></g><g><g><g><g transform="matrix(1,0,0,1,326.6640625,25.7109375)"><path transform="matrix(0.017,0,0,-0.017,0,0)" d="M864 376C864 432 800 446 766 446C712 446 678 403 662 376C635 435 582 446 553 446C445 446 388 315 388 288C388 273 404 274 404 274C414 274 419 278 421 288C455 392 519 416 551 416C568 416 600 408 600 353C600 323 584 256 547 116C531 55 497 16 456 16C451 16 436 15 418 23C440 32 458 51 458 78C458 108 432 118 416 118C383 118 356 89 356 55C356 5 411 -16 455 -16C512 -16 547 33 559 54C574 19 610 -16 668 -16C775 -16 832 116 832 143C832 157 818 158 816 158C805 158 801 150 799 143C767 38 700 16 670 16C634 16 620 44 620 77C620 98 625 120 636 164L670 301C676 328 699 416 765 416C769 416 785 415 803 408C779 399 762 376 762 353C762 335 775 314 805 314C829 314 864 333 864 376Z" stroke="rgb(0,0,0)" stroke-opacity="1" stroke-width="8" fill="rgb(0,0,0)" fill-opacity="1"></path></g></g><g><g><g><g><g transform="matrix(1,0,0,1,341.6953125,24.6171875)"><path transform="matrix(0.017,0,0,-0.017,0,0)" d="M256 710C256 733 236 752 213 752C196 752 181 742 176 729L56 432C55 429 57 426 60 426L87 426C89 426 90 427 91 428L249 688C253 694 256 702 256 710Z" stroke="rgb(0,0,0)" stroke-opacity="1" stroke-width="8" fill="rgb(0,0,0)" fill-opacity="1"></path></g></g></g></g><g><g><g><g transform="matrix(1,0,0,1,342.5390625,30.3765625)"><path transform="matrix(0.0119,0,0,-0.0119,0,0)" d="M419 -4C421 -4 424 -3 424 0L424 31C424 33 422 36 419 36L387 36C297 36 298 45 298 79L298 640C298 665 296 670 271 670C270 670 269 670 268 669C208 607 121 606 89 606C87 606 84 605 84 602L84 571C84 569 86 566 89 566C109 566 163 566 216 590L216 79C216 46 217 36 127 36L95 36C93 36 90 34 90 31L90 0C90 -2 92 -4 95 -4C130 -1 217 -2 257 -2C297 -2 384 -1 419 -4Z" stroke="rgb(0,0,0)" stroke-opacity="1" stroke-width="8" fill="rgb(0,0,0)" fill-opacity="1"></path></g></g></g></g></g></g></g><g><g><g><g transform="matrix(1,0,0,1,326.6640625,140.4140625)"><path transform="matrix(0.017,0,0,-0.017,0,0)" d="M864 376C864 432 800 446 766 446C712 446 678 403 662 376C635 435 582 446 553 446C445 446 388 315 388 288C388 273 404 274 404 274C414 274 419 278 421 288C455 392 519 416 551 416C568 416 600 408 600 353C600 323 584 256 547 116C531 55 497 16 456 16C451 16 436 15 418 23C440 32 458 51 458 78C458 108 432 118 416 118C383 118 356 89 356 55C356 5 411 -16 455 -16C512 -16 547 33 559 54C574 19 610 -16 668 -16C775 -16 832 116 832 143C832 157 818 158 816 158C805 158 801 150 799 143C767 38 700 16 670 16C634 16 620 44 620 77C620 98 625 120 636 164L670 301C676 328 699 416 765 416C769 416 785 415 803 408C779 399 762 376 762 353C762 335 775 314 805 314C829 314 864 333 864 376Z" stroke="rgb(0,0,0)" stroke-opacity="1" stroke-width="8" fill="rgb(0,0,0)" fill-opacity="1"></path></g></g><g><g><g><g><g transform="matrix(1,0,0,1,341.6953125,139.3203125)"><path transform="matrix(0.017,0,0,-0.017,0,0)" d="M256 710C256 733 236 752 213 752C196 752 181 742 176 729L56 432C55 429 57 426 60 426L87 426C89 426 90 427 91 428L249 688C253 694 256 702 256 710Z" stroke="rgb(0,0,0)" stroke-opacity="1" stroke-width="8" fill="rgb(0,0,0)" fill-opacity="1"></path></g></g></g></g><g><g><g><g transform="matrix(1,0,0,1,342.5390625,145.0796875)"><path transform="matrix(0.0119,0,0,-0.0119,0,0)" d="M453 173C453 175 452 178 449 178L424 178C422 178 420 177 420 175C415 145 408 102 399 88C391 83 329 82 307 82L138 81L236 177C392 315 454 370 454 472C454 589 361 670 237 670C121 670 46 576 46 485C46 425 100 424 103 424C121 424 160 438 160 482C160 510 140 538 102 538L96 538C120 597 170 630 224 630C312 630 354 553 354 472C354 394 305 316 250 254L58 40C46 28 46 24 46 0C46 -2 47 -4 50 -4L421 -4C423 -4 425 -3 425 -1Z" stroke="rgb(0,0,0)" stroke-opacity="1" stroke-width="8" fill="rgb(0,0,0)" fill-opacity="1"></path></g></g></g></g></g></g></g><g><g><g><g transform="matrix(1,0,0,1,419.6640625,25.7109375)"><path transform="matrix(0.017,0,0,-0.017,0,0)" d="M864 376C864 432 800 446 766 446C712 446 678 403 662 376C635 435 582 446 553 446C445 446 388 315 388 288C388 273 404 274 404 274C414 274 419 278 421 288C455 392 519 416 551 416C568 416 600 408 600 353C600 323 584 256 547 116C531 55 497 16 456 16C451 16 436 15 418 23C440 32 458 51 458 78C458 108 432 118 416 118C383 118 356 89 356 55C356 5 411 -16 455 -16C512 -16 547 33 559 54C574 19 610 -16 668 -16C775 -16 832 116 832 143C832 157 818 158 816 158C805 158 801 150 799 143C767 38 700 16 670 16C634 16 620 44 620 77C620 98 625 120 636 164L670 301C676 328 699 416 765 416C769 416 785 415 803 408C779 399 762 376 762 353C762 335 775 314 805 314C829 314 864 333 864 376Z" stroke="rgb(0,0,0)" stroke-opacity="1" stroke-width="8" fill="rgb(0,0,0)" fill-opacity="1"></path></g></g><g><g><g><g><g transform="matrix(1,0,0,1,434.6953125,24.6171875)"><path transform="matrix(0.017,0,0,-0.017,0,0)" d="M456 710C456 733 436 752 413 752C396 752 381 742 376 729L256 432C255 429 257 426 260 426L287 426C289 426 290 427 291 428L449 688C453 694 456 702 456 710ZM256 710C256 733 236 752 213 752C196 752 181 742 176 729L56 432C55 429 57 426 60 426L87 426C89 426 90 427 91 428L249 688C253 694 256 702 256 710Z" stroke="rgb(0,0,0)" stroke-opacity="1" stroke-width="8" fill="rgb(0,0,0)" fill-opacity="1"></path></g></g></g></g><g><g><g><g transform="matrix(1,0,0,1,435.5390625,30.3765625)"><path transform="matrix(0.0119,0,0,-0.0119,0,0)" d="M419 -4C421 -4 424 -3 424 0L424 31C424 33 422 36 419 36L387 36C297 36 298 45 298 79L298 640C298 665 296 670 271 670C270 670 269 670 268 669C208 607 121 606 89 606C87 606 84 605 84 602L84 571C84 569 86 566 89 566C109 566 163 566 216 590L216 79C216 46 217 36 127 36L95 36C93 36 90 34 90 31L90 0C90 -2 92 -4 95 -4C130 -1 217 -2 257 -2C297 -2 384 -1 419 -4Z" stroke="rgb(0,0,0)" stroke-opacity="1" stroke-width="8" fill="rgb(0,0,0)" fill-opacity="1"></path></g></g></g></g></g></g></g><g><g><g><g transform="matrix(1,0,0,1,420.0859375,140.4140625)"><path transform="matrix(0.017,0,0,-0.017,0,0)" d="M864 376C864 432 800 446 766 446C712 446 678 403 662 376C635 435 582 446 553 446C445 446 388 315 388 288C388 273 404 274 404 274C414 274 419 278 421 288C455 392 519 416 551 416C568 416 600 408 600 353C600 323 584 256 547 116C531 55 497 16 456 16C451 16 436 15 418 23C440 32 458 51 458 78C458 108 432 118 416 118C383 118 356 89 356 55C356 5 411 -16 455 -16C512 -16 547 33 559 54C574 19 610 -16 668 -16C775 -16 832 116 832 143C832 157 818 158 816 158C805 158 801 150 799 143C767 38 700 16 670 16C634 16 620 44 620 77C620 98 625 120 636 164L670 301C676 328 699 416 765 416C769 416 785 415 803 408C779 399 762 376 762 353C762 335 775 314 805 314C829 314 864 333 864 376Z" stroke="rgb(0,0,0)" stroke-opacity="1" stroke-width="8" fill="rgb(0,0,0)" fill-opacity="1"></path></g></g><g><g><g><g><g transform="matrix(1,0,0,1,435.1171875,139.3203125)"><path transform="matrix(0.017,0,0,-0.017,0,0)" d="M456 710C456 733 436 752 413 752C396 752 381 742 376 729L256 432C255 429 257 426 260 426L287 426C289 426 290 427 291 428L449 688C453 694 456 702 456 710ZM256 710C256 733 236 752 213 752C196 752 181 742 176 729L56 432C55 429 57 426 60 426L87 426C89 426 90 427 91 428L249 688C253 694 256 702 256 710Z" stroke="rgb(0,0,0)" stroke-opacity="1" stroke-width="8" fill="rgb(0,0,0)" fill-opacity="1"></path></g></g></g></g><g><g><g><g transform="matrix(1,0,0,1,435.9609375,145.0796875)"><path transform="matrix(0.0119,0,0,-0.0119,0,0)" d="M453 173C453 175 452 178 449 178L424 178C422 178 420 177 420 175C415 145 408 102 399 88C391 83 329 82 307 82L138 81L236 177C392 315 454 370 454 472C454 589 361 670 237 670C121 670 46 576 46 485C46 425 100 424 103 424C121 424 160 438 160 482C160 510 140 538 102 538L96 538C120 597 170 630 224 630C312 630 354 553 354 472C354 394 305 316 250 254L58 40C46 28 46 24 46 0C46 -2 47 -4 50 -4L421 -4C423 -4 425 -3 425 -1Z" stroke="rgb(0,0,0)" stroke-opacity="1" stroke-width="8" fill="rgb(0,0,0)" fill-opacity="1"></path></g></g></g></g></g></g></g><g><g><g><g transform="matrix(1,0,0,1,380.421875,22.546875)"><path transform="matrix(0.0085,0,0,-0.0085,0,0)" d="" stroke="rgb(0,0,0)" stroke-opacity="1" stroke-width="24" fill="rgb(0,0,0)" fill-opacity="1"></path></g></g><g><g transform="matrix(1,0,0,1,383.25,22.546875)"><path transform="matrix(0.0085,0,0,-0.0085,0,0)" d="M726 250C726 263 715 274 702 274L414 274L414 563C414 576 402 588 389 588C376 588 364 576 364 563L364 274L76 274C63 274 52 263 52 250C52 237 63 226 76 226L364 226L364 -63C364 -76 376 -88 389 -88C402 -88 414 -76 414 -63L414 226L702 226C715 226 726 237 726 250Z" stroke="rgb(0,0,0)" stroke-opacity="1" stroke-width="24" fill="rgb(0,0,0)" fill-opacity="1"></path></g></g><g><g transform="matrix(1,0,0,1,389.875,22.546875)"><path transform="matrix(0.0085,0,0,-0.0085,0,0)" d="" stroke="rgb(0,0,0)" stroke-opacity="1" stroke-width="24" fill="rgb(0,0,0)" fill-opacity="1"></path></g></g></g></g><g><g><g><g transform="matrix(1,0,0,1,242.09375,77.875)"><path transform="matrix(0.0085,0,0,-0.0085,0,0)" d="" stroke="rgb(0,0,0)" stroke-opacity="1" stroke-width="24" fill="rgb(0,0,0)" fill-opacity="1"></path></g></g><g><g transform="matrix(1,0,0,1,244.921875,77.875)"><path transform="matrix(0.0085,0,0,-0.0085,0,0)" d="M726 250C726 263 715 274 702 274L414 274L414 563C414 576 402 588 389 588C376 588 364 576 364 563L364 274L76 274C63 274 52 263 52 250C52 237 63 226 76 226L364 226L364 -63C364 -76 376 -88 389 -88C402 -88 414 -76 414 -63L414 226L702 226C715 226 726 237 726 250Z" stroke="rgb(0,0,0)" stroke-opacity="1" stroke-width="24" fill="rgb(0,0,0)" fill-opacity="1"></path></g></g><g><g transform="matrix(1,0,0,1,251.546875,77.875)"><path transform="matrix(0.0085,0,0,-0.0085,0,0)" d="" stroke="rgb(0,0,0)" stroke-opacity="1" stroke-width="24" fill="rgb(0,0,0)" fill-opacity="1"></path></g></g></g></g><g><g><g><g transform="matrix(1,0,0,1,465.734375,77.875)"><path transform="matrix(0.0085,0,0,-0.0085,0,0)" d="" stroke="rgb(0,0,0)" stroke-opacity="1" stroke-width="24" fill="rgb(0,0,0)" fill-opacity="1"></path></g></g><g><g transform="matrix(1,0,0,1,468.5625,77.875)"><path transform="matrix(0.0085,0,0,-0.0085,0,0)" d="M726 250C726 263 715 274 702 274L414 274L414 563C414 576 402 588 389 588C376 588 364 576 364 563L364 274L76 274C63 274 52 263 52 250C52 237 63 226 76 226L364 226L364 -63C364 -76 376 -88 389 -88C402 -88 414 -76 414 -63L414 226L702 226C715 226 726 237 726 250Z" stroke="rgb(0,0,0)" stroke-opacity="1" stroke-width="24" fill="rgb(0,0,0)" fill-opacity="1"></path></g></g><g><g transform="matrix(1,0,0,1,475.1875,77.875)"><path transform="matrix(0.0085,0,0,-0.0085,0,0)" d="" stroke="rgb(0,0,0)" stroke-opacity="1" stroke-width="24" fill="rgb(0,0,0)" fill-opacity="1"></path></g></g></g></g><g><g><g><g transform="matrix(1,0,0,1,343.8671875,78.875)"><path transform="matrix(0.017,0,0,-0.017,0,0)" d="M525 720C508 720 502 712 494 699L160 116C136 75 114 40 55 35C44 34 30 32 30 12C30 1 39 -4 47 -4C72 -4 99 -2 125 -2C158 -2 192 -4 224 -4C229 -4 246 -3 246 20C246 34 231 35 228 35C207 36 182 43 182 67C182 79 186 85 196 102L460 564L496 79C498 60 500 41 445 36L426 36C414 36 398 35 398 12C398 -4 415 -4 418 -4C458 -4 500 -2 541 -2C565 -2 623 -4 647 -4C653 -4 670 -4 670 19C670 36 656 36 641 36C593 36 595 39 593 68L548 690L548 699C548 718 535 720 525 720Z" stroke="rgb(0,0,0)" stroke-opacity="1" stroke-width="8" fill="rgb(0,0,0)" fill-opacity="1"></path></g></g><g><g><g><g><g transform="matrix(1,0,0,1,356.6484375,72.30625)"><path transform="matrix(0.0119,0,0,-0.0119,0,0)" d="M726 -64C726 -51 715 -40 702 -40L414 -40L414 226L702 226C715 226 726 237 726 250C726 263 715 274 702 274L414 274L414 563C414 576 402 588 389 588C376 588 364 576 364 563L364 274L76 274C63 274 52 263 52 250C52 237 63 226 76 226L364 226L364 -40L76 -40C63 -40 52 -51 52 -64C52 -77 63 -88 76 -88L702 -88C715 -88 726 -77 726 -64Z" stroke="rgb(0,0,0)" stroke-opacity="1" stroke-width="8" fill="rgb(0,0,0)" fill-opacity="1"></path></g></g></g></g><g><g><g><g transform="matrix(1,0,0,1,356.1796875,83.540625)"><path transform="matrix(0.0119,0,0,-0.0119,0,0)" d="M278 88C278 27 320 -16 375 -16C407 -16 435 2 458 40C484 86 494 142 494 143C494 157 480 158 478 158C465 158 463 149 460 136C440 62 417 16 377 16C361 16 350 23 350 58C350 84 362 121 362 145C362 211 301 241 222 253C249 271 277 300 298 321C346 374 392 416 438 416C448 416 457 413 461 410C419 401 410 366 410 353C410 335 423 314 453 314C481 314 512 338 512 379C512 411 488 446 440 446C411 446 364 438 291 357C260 322 224 286 190 269L291 682C291 683 292 698 274 698C250 698 178 690 152 688C144 687 128 685 128 664C128 647 143 648 157 648C205 648 202 635 202 635L200 616L55 40C51 26 50 23 50 17C50 -10 74 -16 84 -16C99 -16 115 -6 122 8C128 19 168 186 177 224C213 220 286 203 286 144C286 128 278 105 278 88Z" stroke="rgb(0,0,0)" stroke-opacity="1" stroke-width="8" fill="rgb(0,0,0)" fill-opacity="1"></path></g></g></g></g></g><g><svg x="368.1171875" overflow="visible" y="60.875" height="29" width="8.5"><path d=" M 7.13 1.91 c 0.00 -0.12 -0.13 -0.21 -0.27 -0.21 c -0.06 0.00 -0.11 0.02 -0.15 0.04 c -3.42 2.05 -5.39 7.66 -5.39 12.66 v 0.10 h 1.45 v -0.10 c 0.00 -4.78 1.15 -10.35 4.40 -12.32 c 0.08 -0.03 0.11 -0.09 0.11 -0.16 z   M 1.28 14.50 v 0.00 h 1.45 v 0.00 z" style="fill:rgb(0,0,0);fill-opacity:1;stroke-width:1px;stroke:none;stroke-opacity:1;"></path><path d=" M 7.13 27.09 c 0.00 0.12 -0.13 0.21 -0.27 0.21 c -0.06 0.00 -0.11 -0.02 -0.15 -0.04 c -3.42 -2.05 -5.39 -7.66 -5.39 -12.66 v -0.10 h 1.45 v 0.10 c 0.00 4.78 1.15 10.35 4.40 12.32 c 0.08 0.03 0.11 0.09 0.11 0.16 z" style="fill:rgb(0,0,0);fill-opacity:1;stroke-width:1px;stroke:none;stroke-opacity:1;"></path></svg></g><g><g transform="matrix(1,0,0,1,374.9296875,78.875)"><path transform="matrix(0.017,0,0,-0.017,0,0)" d="M532 376C532 432 468 446 434 446C380 446 346 403 330 376C303 435 250 446 221 446C113 446 56 315 56 288C56 273 72 274 72 274C82 274 87 278 89 288C123 392 187 416 219 416C236 416 268 408 268 353C268 323 252 256 215 116C199 55 165 16 124 16C119 16 104 15 86 23C108 32 126 51 126 78C126 108 100 118 84 118C51 118 24 89 24 55C24 5 79 -16 123 -16C180 -16 215 33 227 54C242 19 278 -16 336 -16C443 -16 500 116 500 143C500 157 486 158 484 158C473 158 469 150 467 143C435 38 368 16 338 16C302 16 288 44 288 77C288 98 293 120 304 164L338 301C344 328 367 416 433 416C437 416 453 415 471 408C447 399 430 376 430 353C430 335 443 314 473 314C497 314 532 333 532 376Z" stroke="rgb(0,0,0)" stroke-opacity="1" stroke-width="8" fill="rgb(0,0,0)" fill-opacity="1"></path></g></g><g><g><g><g><g transform="matrix(1,0,0,1,384.3203125,77.78125)"><path transform="matrix(0.017,0,0,-0.017,0,0)" d="M256 710C256 733 236 752 213 752C196 752 181 742 176 729L56 432C55 429 57 426 60 426L87 426C89 426 90 427 91 428L249 688C253 694 256 702 256 710Z" stroke="rgb(0,0,0)" stroke-opacity="1" stroke-width="8" fill="rgb(0,0,0)" fill-opacity="1"></path></g></g></g></g><g><g><g><g transform="matrix(1,0,0,1,385.1640625,83.540625)"><path transform="matrix(0.0119,0,0,-0.0119,0,0)" d="M453 173C453 175 452 178 449 178L424 178C422 178 420 177 420 175C415 145 408 102 399 88C391 83 329 82 307 82L138 81L236 177C392 315 454 370 454 472C454 589 361 670 237 670C121 670 46 576 46 485C46 425 100 424 103 424C121 424 160 438 160 482C160 510 140 538 102 538L96 538C120 597 170 630 224 630C312 630 354 553 354 472C354 394 305 316 250 254L58 40C46 28 46 24 46 0C46 -2 47 -4 50 -4L421 -4C423 -4 425 -3 425 -1Z" stroke="rgb(0,0,0)" stroke-opacity="1" stroke-width="8" fill="rgb(0,0,0)" fill-opacity="1"></path></g></g></g></g></g><g><g transform="matrix(1,0,0,1,392.1328125,78.875)"><path transform="matrix(0.017,0,0,-0.017,0,0)" d="M168 3C168 -29 164 -99 106 -166C99 -174 98 -178 98 -182C98 -191 105 -198 112 -198C129 -198 200 -113 200 3C200 30 198 110 139 110C101 110 82 81 82 53C82 25 100 -4 139 -4C151 -4 155 -3 168 3ZM196 378C196 410 171 436 139 436C107 436 82 410 82 378C82 346 107 320 139 320C171 320 196 346 196 378Z" stroke="rgb(0,0,0)" stroke-opacity="1" stroke-width="8" fill="rgb(0,0,0)" fill-opacity="1"></path></g></g><g><g transform="matrix(1,0,0,1,400.2578125,78.875)"><path transform="matrix(0.017,0,0,-0.017,0,0)" d="M431 591C424 590 409 588 386 588C372 588 365 587 359 589C370 592 383 592 393 592C414 592 422 593 431 591ZM332 684C332 694 326 702 316 702C291 702 294 648 294 648C294 632 296 616 303 600C198 544 42 361 42 167C42 23 136 -8 208 -32C238 -43 240 -43 269 -53C290 -60 328 -73 328 -117C328 -143 309 -178 276 -178C251 -178 225 -167 205 -150C198 -144 196 -142 190 -142C183 -142 176 -148 176 -157C176 -172 222 -210 276 -210C341 -210 390 -143 390 -84C390 -44 369 -22 361 -14C343 6 323 12 264 32C184 59 169 64 146 84C106 120 106 176 106 195C106 346 224 518 323 573C341 557 366 556 385 556C407 556 478 555 478 592C478 623 432 624 394 624C383 624 360 624 333 615C330 623 328 629 328 647C328 661 332 683 332 684Z" stroke="rgb(0,0,0)" stroke-opacity="1" stroke-width="8" fill="rgb(0,0,0)" fill-opacity="1"></path></g></g><g><g><g><g><g transform="matrix(1,0,0,1,408.2109375,82.759375)"><path transform="matrix(0.0119,0,0,-0.0119,0,0)" d="M532 376C532 432 468 446 434 446C380 446 346 403 330 376C303 435 250 446 221 446C113 446 56 315 56 288C56 273 72 274 72 274C82 274 87 278 89 288C123 392 187 416 219 416C236 416 268 408 268 353C268 323 252 256 215 116C199 55 165 16 124 16C119 16 104 15 86 23C108 32 126 51 126 78C126 108 100 118 84 118C51 118 24 89 24 55C24 5 79 -16 123 -16C180 -16 215 33 227 54C242 19 278 -16 336 -16C443 -16 500 116 500 143C500 157 486 158 484 158C473 158 469 150 467 143C435 38 368 16 338 16C302 16 288 44 288 77C288 98 293 120 304 164L338 301C344 328 367 416 433 416C437 416 453 415 471 408C447 399 430 376 430 353C430 335 443 314 473 314C497 314 532 333 532 376Z" stroke="rgb(0,0,0)" stroke-opacity="1" stroke-width="8" fill="rgb(0,0,0)" fill-opacity="1"></path></g></g><g><g><g><g><g transform="matrix(1,0,0,1,414.7734375,81.884375)"><path transform="matrix(0.0119,0,0,-0.0119,0,0)" d="M256 710C256 733 236 752 213 752C196 752 181 742 176 729L56 432C55 429 57 426 60 426L87 426C89 426 90 427 91 428L249 688C253 694 256 702 256 710Z" stroke="rgb(0,0,0)" stroke-opacity="1" stroke-width="8" fill="rgb(0,0,0)" fill-opacity="1"></path></g></g></g></g><g><g><g><g transform="matrix(1,0,0,1,415.3671875,86.0175)"><path transform="matrix(0.00833,0,0,-0.00833,0,0)" d="M453 173C453 175 452 178 449 178L424 178C422 178 420 177 420 175C415 145 408 102 399 88C391 83 329 82 307 82L138 81L236 177C392 315 454 370 454 472C454 589 361 670 237 670C121 670 46 576 46 485C46 425 100 424 103 424C121 424 160 438 160 482C160 510 140 538 102 538L96 538C120 597 170 630 224 630C312 630 354 553 354 472C354 394 305 316 250 254L58 40C46 28 46 24 46 0C46 -2 47 -4 50 -4L421 -4C423 -4 425 -3 425 -1Z" stroke="rgb(0,0,0)" stroke-opacity="1" stroke-width="8" fill="rgb(0,0,0)" fill-opacity="1"></path></g></g></g></g></g></g></g></g><g><svg x="419.5703125" overflow="visible" y="60.875" height="29" width="8.5"><path d=" M 1.32 1.91 c 0.00 -0.12 0.13 -0.21 0.27 -0.21 c 0.06 0.00 0.11 0.02 0.15 0.04 c 3.42 2.05 5.39 7.66 5.39 12.66 v 0.10 h -1.45 v -0.10 c 0.00 -4.78 -1.15 -10.35 -4.40 -12.32 c -0.08 -0.03 -0.11 -0.09 -0.11 -0.16 z  M 7.17 14.50 v 0.00 h -1.45 v 0.00 z" style="fill:rgb(0,0,0);fill-opacity:1;stroke-width:1px;stroke:none;stroke-opacity:1;"></path><path d=" M 1.32 27.09 c 0.00 0.12 0.13 0.21 0.27 0.21 c 0.06 0.00 0.11 -0.02 0.15 -0.04 c 3.42 -2.05 5.39 -7.66 5.39 -12.66 v -0.10 h -1.45 v 0.10 c 0.00 4.78 -1.15 10.35 -4.40 12.32 c -0.08 0.03 -0.11 0.09 -0.11 0.16 z" style="fill:rgb(0,0,0);fill-opacity:1;stroke-width:1px;stroke:none;stroke-opacity:1;"></path></svg></g></g></g><g><g><g><g transform="matrix(1,0,0,1,282.6171875,82.609375)"><path transform="matrix(0.017,0,0,-0.017,0,0)" d="M864 376C864 432 800 446 766 446C712 446 678 403 662 376C635 435 582 446 553 446C445 446 388 315 388 288C388 273 404 274 404 274C414 274 419 278 421 288C455 392 519 416 551 416C568 416 600 408 600 353C600 323 584 256 547 116C531 55 497 16 456 16C451 16 436 15 418 23C440 32 458 51 458 78C458 108 432 118 416 118C383 118 356 89 356 55C356 5 411 -16 455 -16C512 -16 547 33 559 54C574 19 610 -16 668 -16C775 -16 832 116 832 143C832 157 818 158 816 158C805 158 801 150 799 143C767 38 700 16 670 16C634 16 620 44 620 77C620 98 625 120 636 164L670 301C676 328 699 416 765 416C769 416 785 415 803 408C779 399 762 376 762 353C762 335 775 314 805 314C829 314 864 333 864 376Z" stroke="rgb(0,0,0)" stroke-opacity="1" stroke-width="8" fill="rgb(0,0,0)" fill-opacity="1"></path></g></g><g><g><g><g><g transform="matrix(1,0,0,1,297.6484375,81.5625)"><path transform="matrix(0.017,0,0,-0.017,0,0)" d="M256 710C256 733 236 752 213 752C196 752 181 742 176 729L56 432C55 429 57 426 60 426L87 426C89 426 90 427 91 428L249 688C253 694 256 702 256 710Z" stroke="rgb(0,0,0)" stroke-opacity="1" stroke-width="8" fill="rgb(0,0,0)" fill-opacity="1"></path></g></g></g></g></g><g><g><g></g></g><g><g></g></g></g></g></g><g><g><g><g transform="matrix(1,0,0,1,502.578125,82.609375)"><path transform="matrix(0.017,0,0,-0.017,0,0)" d="M864 376C864 432 800 446 766 446C712 446 678 403 662 376C635 435 582 446 553 446C445 446 388 315 388 288C388 273 404 274 404 274C414 274 419 278 421 288C455 392 519 416 551 416C568 416 600 408 600 353C600 323 584 256 547 116C531 55 497 16 456 16C451 16 436 15 418 23C440 32 458 51 458 78C458 108 432 118 416 118C383 118 356 89 356 55C356 5 411 -16 455 -16C512 -16 547 33 559 54C574 19 610 -16 668 -16C775 -16 832 116 832 143C832 157 818 158 816 158C805 158 801 150 799 143C767 38 700 16 670 16C634 16 620 44 620 77C620 98 625 120 636 164L670 301C676 328 699 416 765 416C769 416 785 415 803 408C779 399 762 376 762 353C762 335 775 314 805 314C829 314 864 333 864 376Z" stroke="rgb(0,0,0)" stroke-opacity="1" stroke-width="8" fill="rgb(0,0,0)" fill-opacity="1"></path></g></g><g><g><g><g><g transform="matrix(1,0,0,1,517.609375,81.5625)"><path transform="matrix(0.017,0,0,-0.017,0,0)" d="M456 710C456 733 436 752 413 752C396 752 381 742 376 729L256 432C255 429 257 426 260 426L287 426C289 426 290 427 291 428L449 688C453 694 456 702 456 710ZM256 710C256 733 236 752 213 752C196 752 181 742 176 729L56 432C55 429 57 426 60 426L87 426C89 426 90 427 91 428L249 688C253 694 256 702 256 710Z" stroke="rgb(0,0,0)" stroke-opacity="1" stroke-width="8" fill="rgb(0,0,0)" fill-opacity="1"></path></g></g></g></g></g><g><g><g></g></g><g><g></g></g></g></g></g><g><g><g><g><g><g><g transform="matrix(1,0,0,1,299.171875,46.75)"><path transform="matrix(0.017,0,0,-0.017,0,0)" d="M852 143C852 157 838 158 836 158C823 158 822 150 817 136C799 83 772 16 719 16C705 16 700 22 700 44C700 68 708 91 717 113C736 165 778 276 778 335C778 402 736 446 659 446C587 446 536 407 499 357C497 373 490 399 467 419C441 441 408 446 382 446C300 446 251 394 229 366C219 418 178 446 134 446C85 446 65 405 56 387C37 351 24 293 24 288C24 273 41 274 41 274C53 274 56 278 62 300C79 372 100 416 131 416C144 416 158 410 158 374C158 354 155 343 142 291L84 60C80 45 74 22 74 16C74 -5 91 -16 108 -16C124 -16 139 -5 149 15C151 18 162 65 168 90L190 180C196 202 202 224 207 247L220 296C235 326 287 416 379 416C420 416 428 383 428 350C428 326 422 298 414 268L386 152C376 115 375 109 366 76C361 57 352 22 352 16C352 -5 369 -16 386 -16C421 -16 427 14 435 45L495 286C498 298 551 416 656 416C695 416 706 386 706 350C706 295 664 181 644 128C635 104 630 92 630 71C630 22 668 -16 717 -16C816 -16 852 134 852 143Z" stroke="rgb(250,84,119)" stroke-opacity="1" stroke-width="8" fill="rgb(250,84,119)" fill-opacity="1"></path></g></g></g></g><svg xmlns="http://www.w3.org/2000/svg" x="299.171875" y="31.75" height="6" width="14.9375"><defs><clipPath id="ccp0.6261182549605899"><rect x="-0.5" y="-0.5" width="15.4375" height="6.5"></rect></clipPath></defs><g clip-path="url(#ccp0.6261182549605899)"><svg xmlns="http://www.w3.org/2000/svg" x="0" y="0" height="20" width="17"><defs><clipPath id="ccp0.743300320694146"><rect x="-0.5" y="-0.5" width="17.5" height="20.5"></rect></clipPath></defs><g clip-path="url(#ccp0.743300320694146)"><g><g transform="matrix(1,0,0,1,0,17)"><path transform="matrix(0.017,0,0,-0.017,0,0)" d="M-882 790C-882 788 -880 786 -877 786L1877 786C1879 786 1882 787 1882 790L1882 850C1882 852 1880 854 1877 854L-877 854C-879 854 -882 853 -882 850Z" stroke="rgb(250,84,119)" stroke-opacity="1" stroke-width="8" fill="rgb(250,84,119)" fill-opacity="1"></path></g></g></g></svg></g></svg></g></g></g><g><g><g><g transform="matrix(1,0,0,1,163.5078125,22.547075)"><path transform="matrix(0.008000199999999999,0,0,-0.008000199999999999,0,0)" d="" stroke="rgb(0,0,0)" stroke-opacity="1" stroke-width="24" fill="rgb(0,0,0)" fill-opacity="1"></path></g></g><g><g transform="matrix(1,0,0,1,168.5546875,22.547075)"><path transform="matrix(0.008000199999999999,0,0,-0.008000199999999999,0,0)" d="M726 153C726 166 715 178 702 178L76 178C63 178 52 166 52 153C52 140 63 128 76 128L702 128C715 128 726 140 726 153ZM726 347C726 360 715 372 702 372L76 372C63 372 52 360 52 347C52 334 63 322 76 322L702 322C715 322 726 334 726 347Z" stroke="rgb(0,0,0)" stroke-opacity="1" stroke-width="24" fill="rgb(0,0,0)" fill-opacity="1"></path></g></g><g><g transform="matrix(1,0,0,1,177.1796875,22.547075)"><path transform="matrix(0.008000199999999999,0,0,-0.008000199999999999,0,0)" d="" stroke="rgb(0,0,0)" stroke-opacity="1" stroke-width="24" fill="rgb(0,0,0)" fill-opacity="1"></path></g></g></g></g><g><g><g><g transform="matrix(1,0,0,1,380.1796875,136.547075)"><path transform="matrix(0.008000199999999999,0,0,-0.008000199999999999,0,0)" d="" stroke="rgb(0,0,0)" stroke-opacity="1" stroke-width="24" fill="rgb(0,0,0)" fill-opacity="1"></path></g></g><g><g transform="matrix(1,0,0,1,385.2265625,136.547075)"><path transform="matrix(0.008000199999999999,0,0,-0.008000199999999999,0,0)" d="M726 153C726 166 715 178 702 178L76 178C63 178 52 166 52 153C52 140 63 128 76 128L702 128C715 128 726 140 726 153ZM726 347C726 360 715 372 702 372L76 372C63 372 52 360 52 347C52 334 63 322 76 322L702 322C715 322 726 334 726 347Z" stroke="rgb(0,0,0)" stroke-opacity="1" stroke-width="24" fill="rgb(0,0,0)" fill-opacity="1"></path></g></g><g><g transform="matrix(1,0,0,1,393.8515625,136.547075)"><path transform="matrix(0.008000199999999999,0,0,-0.008000199999999999,0,0)" d="" stroke="rgb(0,0,0)" stroke-opacity="1" stroke-width="24" fill="rgb(0,0,0)" fill-opacity="1"></path></g></g></g></g></svg>
</svg>
